<?xml version="1.0" standalone="no"?>
<!DOCTYPE svg PUBLIC "-//W3C//DTD SVG 20010904//EN"
 "http://www.w3.org/TR/2001/REC-SVG-20010904/DTD/svg10.dtd">
<svg version="1.0" xmlns="http://www.w3.org/2000/svg"
 width="663.000000pt" height="663.000000pt" viewBox="0 0 663.000000 663.000000"
 preserveAspectRatio="xMidYMid meet">

<g transform="translate(0.000000,663.000000) scale(0.100000,-0.100000)"
fill="#000000" stroke="none">
<path d="M1957 4043 c-4 -3 -7 -71 -7 -149 0 -168 -15 -152 147 -156 97 -3
103 -4 133 -33 58 -56 61 -153 4 -206 l-26 -24 -299 -3 -299 -3 0 -302 c0
-222 3 -306 12 -315 8 -8 57 -12 153 -12 96 0 145 4 153 12 8 8 12 56 12 148
0 74 4 140 8 146 4 7 63 13 152 17 163 6 237 24 320 77 103 66 158 155 180
295 36 223 -111 441 -335 500 -60 15 -295 22 -308 8z"/>
<path d="M4453 4035 c-195 -42 -382 -211 -451 -408 -33 -96 -41 -244 -18 -337
44 -174 157 -316 310 -390 102 -49 181 -64 299 -58 222 12 411 136 517 341 40
75 69 179 70 245 l0 32 -154 0 -153 0 -6 -54 c-10 -102 -77 -194 -171 -237
-61 -28 -176 -26 -241 5 -65 30 -138 111 -161 178 -24 74 -16 181 19 241 49
83 150 147 233 147 l34 0 0 155 0 155 -32 -1 c-18 0 -61 -7 -95 -14z"/>
<path d="M3160 4024 c-176 -37 -330 -156 -410 -315 -34 -66 -60 -157 -60 -206
l0 -33 153 0 152 0 19 60 c11 37 33 77 58 105 117 133 299 133 416 0 110 -125
91 -322 -41 -426 -47 -38 -100 -59 -144 -59 -23 0 -23 -1 -23 -150 l0 -150 43
0 c124 0 262 65 372 175 124 124 178 251 177 420 -1 280 -199 523 -474 579
-92 19 -151 19 -238 0z"/>
</g>
</svg>
