<svg data-name="Layer 1" xmlns="http://www.w3.org/2000/svg" viewBox="0 0 1920 1080"><defs><clipPath id="a"><path fill="none" stroke-width="0" d="M0 0h1920v1080H0z"/></clipPath></defs><g clip-path="url(#a)"><path d="m1924-26.9-19.6 45.6m-17-47-18.8 44.2M1851.4-30l-18.1 42.8M1815.8-32l-17.4 41.6m-17.9-43.9-16.7 40.6m-18.3-43.2-16 39.7M1941 21.1 1915.3 63m-10.9-44.3-24.7 40.7m-11.1-43.5-23.7 39.6m-11.6-42.7-22.8 38.7m-12.1-41.9-21.9 37.8m-12.7-41.1-21 37m-13.3-40.5-20.2 36.4m-14-40-19.4 35.9m-14.8-39.6L1642.6 31M1627-8.1 1609.3 27m-16.6-38.7-16.8 34.8m-17.6-38.5-15.9 34.6M1523.7-19l-15.1 34.4m-19.9-38-14.1 34.3m-21.3-37.8-13.1 34.2m-22.8-37.6-12.1 34.2M1381-32.8l-11 34.3M341.5-35.6l18 35.4m-86.1-29.7 18.1 35.1m-88.2-28.5 17.8 34.8m-89.7-27.4 16.9 34.6M57.5-7.5 73 26.8M1915.3 63l-29.7 37.5m-5.9-41.1-28.5 36.5m-6.3-40.4-27.3 35.7m-7.1-39.7-26.1 35m-7.9-39.1-25.1 34.5m-8.6-38.6-24.1 34.1m-9.4-38.2-23 33.6m-10.4-37.7-22 33.4M1642.6 31l-21 33.1M1609.3 27l-20.1 33m-13.3-36.9L1556.7 56m-14.3-36.8L1524.2 52m-15.6-36.6-17.1 32.9m-16.9-36.6-16 32.9m-18.4-36.5-14.9 33m-20-36.4-13.7 33.2M1370 1.5l-12.7 33.3M1334-1.6 1322.6 32m-25.2-36.5-10.2 33.8M1260-7.2l-8.8 34.1m-29.4-36.5-7.5 34.2m-31.5-36.4-6.1 34.5m-33.9-36.4-4.6 34.8m-36.3-36.4-3.3 35m-38.8-36.3-1.7 35.2m-41.6-36.3-.1 35.5m-44.5-36.3 1.6 35.8M925.6-19l3.5 36m-51.4-36.3 5.5 36.3m-55.3-36.3 7.6 36.6m-59.2-36.1 9.7 36.7m-63.2-35.8 11.8 36.8m-67.2-35.4 13.8 36.9M610-14.5l15.8 36.8M550.5-12l17.6 36.8M488.8-8.8l19.3 36.6M425.2-4.9 446 31.5M359.5-.2 381.4 36M291.5 5.2l22.7 35.9m-93.1-29.6 23.2 35.6m-96-28.4 23.3 35.2M73 26.8l22.8 34.8m-100-25.7 21.7 34.5M1921 104.8l-33.8 34.4m-1.6-38.7-32.4 33.6m-2-38.2-31 33m-2.6-37.7-29.6 32.5m-3.6-37.2-28.3 32.2m-4.7-36.8-27 31.8m-5.7-36.3-25.9 31.6m-6.5-36.2-24.8 31.5m-7.6-35.8-23.6 31.3m-8.7-35.7-22.5 31.4m-9.9-35.5-21.4 31.4M1556.7 56l-20.3 31.5M1524.2 52 1505 83.7m-13.5-35.4-18 31.7m-14.9-35.4-16.8 32m-16.5-35.5-15.6 32.3m-18.1-35.5-14.3 32.5m-20-35.6-13 32.8M1322.6 32l-11.7 33m-23.7-35.7-10.3 33.4m-25.7-35.8-8.9 33.6m-28-35.9-7.3 34m-30.3-35.9-5.9 34.3m-32.6-35.9-4.5 34.6m-35.1-36-2.8 34.9m-37.7-36-1.3 35.3m-40.4-36.1.4 35.6m-43.3-36.1 2.1 35.9M929.1 17l4.1 36.3m-50-36.3 6.2 36.6m-53.9-36.3 8.4 36.8M786 17.9l10.7 37m-62.1-36 13.1 37.2m-66.5-35.7 15.5 37.3m-70.9-35.4 17.8 37.4m-75.5-34.9 20.1 37.3m-80.1-34.3 22.3 37.3M446 31.5l24.3 37.2M381.4 36l26.1 36.9m-93.3-31.8 27.7 36.7m-97.6-30.7 29 36.3M171.6 53.9l29.9 35.9M95.8 61.6 126.2 97M17.5 70.4l30.3 34.9m1875.1 38.8-36.8 31.4m1.1-36.3L1852 170m1.2-35.9-33.6 30.3m.6-35.5-31.9 30.1m-.3-35.3-30.3 29.9m-1.6-34.9-28.7 29.8m-3-34.8-27.1 29.8m-4.5-34.5-25.5 29.7m-5.8-34.4-24.2 29.9m-7-34.4-22.8 30m-8.4-34.3-21.6 30.1m-9.7-34.2-20.3 30.3m-11.1-34.2-19.1 30.4M1505 83.7l-17.8 30.7M1473.5 80l-16.6 31.1m-15.1-34.5-15.4 31.4m-16.7-34.6-14.1 31.7m-18.3-34.7-12.9 32m-20.1-34.8-11.5 32.4m-21.9-35-10.2 32.8m-23.8-35.1-8.8 33.1m-25.8-35.3-7.4 33.6M1207 58.6l-5.9 34M1170.8 57l-4.4 34.4m-32.7-35.7-2.8 34.8m-35.1-35.9-1.3 35.2m-37.7-35.9.4 35.4m-40.4-35.9 2 35.9m-43.2-36.1 3.8 36.2m-46.2-36.1 5.6 36.6m-49.4-36.3 7.7 37m-53.2-36.5 10 37.4m-57.2-36.6 12.5 37.6m-61.5-36.4 15 37.8m-66-36.2 17.6 37.9m-70.7-35.9 20.2 38m-75.6-35.6 22.9 38.1m-80.7-35.1 25.6 38m-85.7-34.4 28.1 37.9m-90.9-33.7 30.5 37.7m-96.1-32.8 32.8 37.4M273.3 83.4l34.8 37M201.5 89.8l36.7 36.5M126.2 97l38.2 36M47.8 105.3l39.1 35.3M-34 114.7l39.5 34.6m1954.7 37.3-40.5 29.6m2.4-35.1-38.9 28.9m2.9-34.5-37.2 28.5m3.1-34-35.2 28.1m2.8-33.7-33.3 28.1m2-33.5-31.3 28m.7-33.4-29.4 28.2m-.9-33.3-27.6 28.3m-2.5-33.3-25.8 28.5m-4.2-33.3-24.2 28.7m-5.8-33.2-22.4 28.9m-7.4-33.3-20.9 29.2m-9.1-33.4-19.3 29.5m-10.7-33.4-17.8 29.8m-12.4-33.6-16.3 30.2m-13.8-33.7-14.9 30.5m-15.4-33.8-13.5 30.8m-17-33.9-12.1 31.2m-18.7-34.1-10.8 31.7m-20.4-34.4-9.4 32.1m-22.2-34.5-8.1 32.5m-24-34.7-6.7 32.9m-25.9-34.9-5.3 33.4m-27.9-35.1-3.9 33.7m-29.9-35.2-2.4 34.1m-32.3-35.3-1 34.5m-34.5-35.4.5 34.9m-36.9-35.6 2 35.3m-39.3-35.8 3.5 35.8m-41.9-35.8 5.1 36.1m-44.5-36L986 126m-47.2-36.1 8.3 36.9m-50-36.2 10.2 37.3m-53.4-36.4 12.5 37.6m-57.2-36.6 15 38m-61.5-36.6 17.6 38.3m-66-36.6 20.4 38.5m-70.9-36.4 23.3 38.6m-76-36.1 26.2 38.6M556 103.1l29.2 38.7m-86.8-35.2 32.2 38.5M438 110.6l35.1 38.3m-98.4-33.7 38.1 38m-104.7-32.8L349 158m-110.8-31.7 43.6 37.1M164.4 133l46.1 36.4M86.9 140.6l48.2 35.6M5.5 149.3 55.4 184m1902.8 38.4-42.3 27.2m3.8-33.4-40.7 26.7m4.2-32.9-39.1 26.4m4.8-32.4-37.1 26.3m5-32.2-35.1 26.3m4.6-31.9-33 26.5m3.7-32-30.9 26.8m2.2-32-28.8 27.1m.3-32.1-26.8 27.5m-1.5-32.3-24.9 27.8m-3.5-32.4-23 28.3m-5.2-32.6-21.3 28.7m-7-32.8-19.5 29.1m-8.9-33-17.8 29.5m-10.7-33.1-16.2 29.9m-12.5-33.3-14.6 30.3m-14.1-33.5-12.8 30.8m-16.1-33.8-11.1 31.3m-18-34-9.3 31.7m-20.2-34.1-7.5 32.1m-22.3-34.4-5.8 32.6m-24.5-34.6-4.2 33m-26.5-34.8-2.5 33.4m-28.7-34.9-.9 33.8m-30.9-35.2.8 34.2m-33.1-35.3 2.3 34.6m-35.6-35.4 3.8 35m-37.8-35.5 5.2 35.3m-40.1-35.6 6.7 35.7m-42.5-35.7 8.2 36.1m-45-35.8 9.6 36.4M986 126l10.9 36.8m-49.8-36 12.4 37.3m-52.2-36.2 13.9 37.7m-54.8-36.5 16.1 38.1m-58.3-36.7 18.5 38.4m-62.4-36.7 21.2 38.6m-66.8-36.7 24 38.9m-71.6-36.7 27 39.1m-76.8-36.6 30.3 39.2m-82.4-36.2 33.6 39.1m-88.2-35.8 36.9 39.1m-94.4-35.3 40.4 38.9m-100.7-34.6 43.8 38.5M349 158l47.4 38.1m-114.6-32.7 50.9 37.5m-122.2-31.5 54.4 36.7m-129.8-29.9 57.7 35.8M55.4 184l60.6 34.7m-144.9-25.8 63.1 33.5m1920.7 30.1-43.9 25.1m4.9-32-42.2 24.8m5.3-31.5-40.6 24.5m5.7-31-38.8 24.5m6.5-30.6-36.7 24.6m6.6-30.5-34.5 25m6.1-30.4-32.3 25.4m5.1-30.6-30.1 25.9m3.5-30.8-28 26.4m1.5-31-25.9 26.9m-.5-31.4-23.8 27.6m-2.7-31.7-21.8 28m-4.7-31.9-19.9 28.5m-6.6-32.2-18 29.1m-8.7-32.6-16.3 29.7m-10.6-32.9-14.5 30.2m-12.6-33.2-12.6 30.7m-14.3-33.4-10.7 31.2m-16.5-33.7-8.7 31.7m-18.6-34-6.7 32.3m-21-34.3-4.5 32.7m-23.6-34.5-2.3 33.1m-26.4-34.7-.2 33.6m-28.8-35 1.8 34m-31.4-35.1 3.8 34.4m-33.9-35.4 5.7 34.8m-36.5-35.5 7.6 35.2m-39.4-35.6 9.3 35.5m-41.9-35.7 11 35.9m-44.4-35.8 12.7 36.2m-47-35.8 14.1 36.5m-49.5-35.9 15.4 36.9m-52-35.9 16.6 37.3m-54-36 17.8 37.7m-56.1-36.2 19.2 38.1m-57.9-36.5 21.1 38.4m-60.9-36.7 23.5 38.7m-64.7-36.8 26.1 39M758.7 173l28.9 39.2m-73.5-36.8 31.9 39.4M667.6 178l35.2 39.5m-84-36.6 38.7 39.5m-90-36.2 42.3 39.5m-96.3-35.9 46.2 39.3m-103.1-35.4 50.2 39m-110.4-34.6 54.5 38.5m-118.2-33.7 58.7 37.9m-126.5-32.7 63.2 37.1M192.8 212l67.7 36M116 218.7l71.9 34.8M34.2 226.4l75.8 33.4m1840.6 29.5-45.1 23.2m5.5-30.9-43.4 23m6.1-30.2-41.9 22.8m6.6-29.8-40.2 22.9m7.1-29.4-38.3 23.2m8.1-29.2-36.1 23.6m8.2-29.1-33.8 24.2m7.6-29.2-31.4 24.7m6.4-29.4-29.2 25.4m4.7-29.8-26.9 26.1m2.5-30.2-24.6 26.8m.3-30.6-22.6 27.4m-1.9-31.1-20.5 28.1m-4.1-31.5-18.5 28.7m-6.1-31.8-16.6 29.3m-8.4-32.2-14.6 29.9m-10.5-32.6-12.7 30.5m-12.5-33-10.6 31.1m-14.4-33.3-8.4 31.7m-16.8-33.7-6.1 32.2m-19.2-33.9-3.8 32.7m-21.7-34.3-1.4 33.3m-24.5-34.7 1 33.8m-27.6-34.9 3.5 34.2m-30.5-35.2 5.9 34.7m-33.5-35.4 8.4 35.1m-36.6-35.7 10.8 35.5m-39.7-35.8 12.9 35.8m-43-35.9 15.1 36.2m-46-36 17.1 36.5m-48.8-36.1 18.8 36.8m-51.7-36.1 20.4 37.1m-54.5-36.1 21.8 37.4m-57.2-36 23 37.7m-59.2-36 24 38m-60.9-36.1 25.2 38.4m-62-36.5 27 38.8m-64.4-36.8 29.3 39.1m-67.9-36.9 31.8 39.4m-71.8-37 34.6 39.6m-76.2-37 37.7 39.7m-80.9-37 41 39.9m-86.3-37 44.6 39.9m-92.3-36.6 48.5 39.8m-98.6-36.4 52.8 39.6m-105.7-36 57.3 39.3m-113.2-35.4 62.1 38.9m-121.6-34.7 67.3 38.1m-130.6-33.7 72.7 37.2M260.5 248l78.1 36.2m-150.7-30.7 83.7 34.8M110 259.8l89.3 33.1m1746.3 27.9-46.1 21.4m6-29.7-44.5 21.3m6.6-29.2-43 21.3m7.2-28.7-41.3 21.5m7.7-28.4-39.5 21.8m8.3-28-37.7 22.2m9.7-27.8-35.3 22.9m9.7-27.8-32.9 23.5m9.1-28-30.5 24.4m7.7-28.4-28.1 25.2m5.9-28.9-25.8 26m3.7-29.4-23.7 26.7m1.4-29.9-21.4 27.4m-1-30.4-19.3 28.1m-3.3-30.9-17.3 28.9m-5.4-31.4-15.3 29.5m-7.7-31.8-13.2 30.1m-10-32.2-10.9 30.8m-12.2-32.7-8.6 31.4m-14.2-33-6.2 32m-16.7-33.5-3.7 32.7m-19.3-33.9-1.1 33.3m-22-34.3 1.5 33.8m-25-34.7 4.3 34.4m-28.4-35.1 7.2 34.9m-31.8-35.4 10 35.3m-35.1-35.6 12.7 35.7m-38.5-35.9 15.4 36.1m-42.2-36.1 18.2 36.5m-46.1-36.2 20.7 36.8m-49.6-36.3 23 37m-53-36.3 25.2 37.3m-56.5-36.3 27.1 37.6m-59.8-36.3 28.6 37.9m-62.8-36.2 29.8 38.2m-65-36.2 30.8 38.6m-66.5-36.3 31.8 38.9m-66.8-36.6 33.5 39.1m-68.6-36.8 35.8 39.4m-71.9-36.9 38.4 39.6m-75.6-37 41.1 39.9m-79.6-37.2 44.3 40.1m-84.2-37.2 47.7 40.1m-89.4-37.2 51.5 40.2m-95.3-37 55.6 40.1m-101.4-36.9 60.1 39.9M564.1 270l65 39.6M513 273.5l70.4 39m-124.7-35.6 76.1 38.4m-134-34.9 82.4 37.5m-144.6-33.7 89 36.3m-156-32.2 96 34.8m-168.3-30.2 102.8 33m1638 25.3-47 19.8m6.4-28.8L1854 362m7-28.2-44 19.9m7.6-27.8-42.3 20.1m8.2-27.3-40.8 20.5m9-27.1-39.1 21m9.7-26.8-37.1 21.6m11.5-26.5-34.7 22.4m11.5-26.7-32.2 23.3m10.8-26.9-29.8 24.2m9.4-27.4-27.4 25m7.5-27.9-25.1 25.9m5.1-28.6-22.7 26.7m2.7-29.2-20.6 27.5m.3-29.8-18.5 28.3m-2.1-30.3-16.3 29m-4.4-30.9-14.1 29.7m-6.8-31.4-11.8 30.4m-9.1-31.8L1466 304m-11.4-32.4-6.9 31.8m-13.5-32.8-4.2 32.5m-16.2-33.3-1.5 33.1m-18.9-33.7 1.4 33.7m-21.9-34.2 4.4 34.4m-25.1-34.7 7.4 34.9m-28.6-35.1 10.5 35.4m-32.3-35.5 13.6 35.9m-36-35.8 16.7 36.3m-39.8-36.1 19.8 36.8m-43.8-36.4 22.8 37.1m-48.2-36.5 25.7 37.4m-52.3-36.7 28.5 37.7m-56.3-36.7 31 38m-60.4-36.7 33.3 38.2m-64.5-36.6 35.1 38.4m-68.1-36.4 36.4 38.7m-70.6-36.3 37.5 38.9M997.4 281l38.5 39.2m-71.8-36.7 40.3 39.6m-73.1-37 42.6 39.8m-76.1-37.1 45.2 40.1m-79.7-37.2 48.1 40.1M828 294.6l51.3 40.3m-87.8-37.4 54.9 40.4m-92.8-37.4 58.7 40.4m-98.4-37.3 63 40.4m-104.3-37.4 67.8 40.2m-111.3-37.2 73.3 39.8m-119-36.9 79.1 39.3m-127.7-36.5 85.6 38.6m-137.2-36 92.6 37.7m-148.2-35.1 100.3 36.4m-160.3-33.8L475.9 358m-173.8-32.1 116.9 33m1515.1 21.7-47.7 18.2m6.7-27.8-46.2 18.3m7.1-27.3-44.7 18.5m7.7-26.8-43.2 18.8m8.5-26.5-41.8 19.3m9.2-26.1-40.1 19.8m10-25.9-38.4 20.5m11-25.7-36.5 21.2m13.3-25.3-34 22.1m13.3-25.5-31.6 23.1m12.6-25.8-29.1 24.1m11.1-26.5-26.8 25m9.2-27-24.5 25.8m6.9-27.7-22.3 26.7m4.4-28.4-20.1 27.6m1.9-29.1-17.8 28.4m-.6-29.7-15.5 29.1m-3-30.3-13.1 29.9m-5.5-30.9-10.7 30.7M1466 304l-8 31.4m-10.3-32-5.2 32.2m-12.5-32.5-2.3 32.9m-15.4-33.1.6 33.6m-18.1-33.6 3.7 34.2m-21.2-34 6.9 34.8m-24.6-34.6 10.3 35.4m-28.4-35.1 13.6 35.9m-32.3-35.5 17 36.4m-36.3-35.9 20.3 36.9m-40.3-36.2 23.6 37.2m-44.6-36.5 26.8 37.6m-49.3-36.7 30 37.8m-53.8-36.8 33.1 38.2m-58.4-36.9 36.1 38.4m-63.2-36.9 38.7 38.6m-68.1-36.8 40.7 38.9m-72.4-36.6 42.2 39.1m-75.3-36.5 43.3 39.4m-77-36.5 44.4 39.8m-75.9-36.9 46.2 40m-76.7-37.2 48.7 40.2M943 328.9l51.4 40.3m-83-37.4 54.5 40.6m-86.6-37.5 57.9 40.7m-90.8-37.7 61.6 40.7m-95.7-37.7 65.9 40.7M776.9 344l70.5 40.6m-107-37.8 75.8 40.4m-113.8-37.8 81.5 40m-121.4-37.6 87.9 39.5m-130-37.4 95.1 38.8m-139.7-37.1 102.9 37.8m-150.8-36.5 111.5 36.6M475.9 358l120.7 35M419 358.9l130.6 33.2m1378 16.8-48 16.9m6.8-27-46.5 17.1m7-26.6-45.1 17.3m7.5-26.1-43.7 17.8m8.2-25.8-42.3 18.3m9-25.5-40.8 18.9m9.9-25.2-39.3 19.5m10.9-24.9-37.7 20.2m12.2-24.7-35.6 21.1m14.9-24.3-33.2 22.2m14.9-24.6-30.7 23.2m14.2-24.9-28.5 24.1m12.8-25.6-26.2 25.1m10.9-26.3-24 26m8.6-27L1532 365m6.1-27.7-19.5 27.7m3.6-28.4-17.2 28.5m1.1-29.1-14.7 29.3m-1.4-29.7-12.2 30.2m-4-30.4-9.5 30.9m-6.3-30.9-6.7 31.7m-8.8-31.5-3.7 32.4m-11.1-32-.7 33.1m-14.1-32.6 2.6 33.9m-17-33.3 5.9 34.5m-20.2-33.7 9.3 35.1m-23.6-34.3 12.8 35.7m-27.6-34.9 16.4 36.3m-31.7-35.4 20 36.8m-36-35.8 23.6 37.2m-40.3-36.2L1334 380m-44.7-36.5 30.3 38m-49.6-36.9 33.8 38.4m-54.5-37 37 38.6m-59.3-37.1 40.2 38.9m-64.7-37.2 43 39.1m-70.4-37 45.3 39.4m-75.5-36.9 47.1 39.6m-79.1-36.7 48.4 39.9m-81-36.6 49.4 40.1m-79.1-37 51.4 40.4m-79.4-37.4 54.1 40.7m-82.3-37.6 56.9 40.9m-85.4-37.7 60.2 41m-88.9-37.8 63.8 41m-93-38 67.9 41.2m-97.7-38.2 72.3 41.2m-103.1-38.2 77.4 41m-108.6-38.4 83 40.7m-115.3-38.5 89.5 40.4m-123-38.5 96.5 39.8m-131.4-38.4 104.1 39m-140.9-38.3 112.8 38.1m-152.1-38 122.3 36.8M596.6 393l132.7 35.3m-179.7-36.2 143.9 33.4m1268.9 22-50.1 15.1m8.3-26.2-48.6 15.4m7.6-26-47 15.7m7.3-25.6-45.6 16.1m7.5-25.4-44.1 16.7m7.9-25-42.8 17.2m8.7-24.7-41.4 17.8m9.6-24.4-39.9 18.5m10.5-24.2-38.4 19.4m11.6-24.1-36.8 20.2m13.4-23.8-34.8 21.2m16.5-23.3-32.4 22.2m16.6-23.6-30.1 23.2m15.8-24-27.7 24.2m14.3-24.7-25.5 25.1m12.4-25.4-23.4 26M1532 365l-21.2 26.9m7.8-26.9-18.8 27.8m5.2-27.7-16.3 28.7m2.7-28.5-13.8 29.6m.2-29.1-11.1 30.3m-2.4-29.8-8.2 31.2m-4.8-30.4-5.3 32m-7.2-31.1-2.2 32.7m-9.6-31.6 1.2 33.5m-12.7-32.2 4.5 34.1m-15.6-32.9 8 34.9m-18.9-33.5 11.7 35.4m-22.5-34 15.3 36m-26.5-34.6 19 36.6m-30.7-35.2 22.8 37.1m-35.2-35.7 26.4 37.6M1334 380l30 38m-44.4-36.5 33.5 38.3m-49.3-36.8 37 38.7m-54.5-37.1 40.3 39m-59.4-37.2 43.7 39.2m-65.4-37.3 46.8 39.5m-71.9-37.1 49.4 39.7m-77.8-37 51.3 40m-82-36.8 52.8 40.2m-84.4-36.7 54 40.5m-81.7-37.1 56.3 40.8m-81.6-37.5 59 40.9m-84.4-37.6 62.3 41.1m-87.5-37.8 65.7 41.3m-90.8-38.1 69.6 41.4m-94.7-38.2 73.9 41.4m-99.3-38.4 78.7 41.4m-104.4-38.6 84.1 41.2m-109.7-38.9 90.3 41m-116.1-39.1 97.1 40.6m-123.6-39.3 104.7 40.1m-132-39.5 113.2 39.4m-141.3-39.6 122.4 38.4m-152.2-39.6 132.7 37.3m-165.1-39.3 144.1 35.8m-179.9-38.6 156.4 34M1953 474l-50.9 13.6m10.2-25-49.2 14m8.9-24.8-47.6 14.5m8.2-24.8-46.2 15m7.9-24.5-44.7 15.6m8.1-24.3-43.4 16.3m8.5-24.1-41.9 16.9m9.2-23.8-40.6 17.7m10.3-23.6-39.2 18.6m11.3-23.4-37.6 19.4m12.4-23.3-35.9 20.4m14.5-23-34 21.3m18.1-22.4-31.5 22.4m18-22.8-29.1 23.5m17.2-23.3-27 24.4m15.8-24-24.9 25.4m13.9-24.8-22.6 26.3m11.6-25.5-20.3 27.2m9.3-26.3-17.8 28m6.7-27-15.3 28.9m4.2-27.8-12.6 29.7m1.7-28.5-9.8 30.6m-.8-29.2-6.9 31.4m-3.2-29.8-3.8 32.2m-5.6-30.6-.5 33m-7.9-31.1 2.9 33.7m-11.1-31.8 6.4 34.4m-14-32.4 9.9 35m-17.1-33.1 13.6 35.7m-20.8-33.7 17.4 36.3m-24.9-34.3 21.2 36.8m-29.1-34.9 25 37.3m-33.8-35.4 28.8 37.7M1364 418l32.5 38.2m-43.4-36.4 36.1 38.6m-48.4-36.7 39.7 38.9m-53.9-37 43.3 39.2m-59-37.2 46.6 39.5m-65.2-37.3 49.9 39.8m-72.4-37.2 52.7 40m-79.2-37 55 40.2m-84.2-36.8 56.7 40.5m-87.1-36.7 58.3 40.8m-83.7-37.1 60.9 41m-83.5-37.6 64 41.2m-86.1-37.7 67.3 41.4m-89.1-37.9 71.1 41.5m-92.3-38.2 75.3 41.6m-96.1-38.4 79.9 41.6m-100.5-38.6 85.1 41.5m-105.4-38.9 90.9 41.4m-110.3-39.3 97.5 41.2m-116.5-39.7 104.8 40.7m-123.7-39.9 112.9 40.2m-131.7-40.3 121.8 39.5m-140.7-40.7 131.6 38.7m-151.1-41 142.4 37.6m-163.4-41.1 154.4 36.2m-177.9-40.8 167.7 34.6M1941 499l-51.4 11.9m12.5-23.3-49.7 12.5m10.7-23.5-48.1 13.2m9.4-23.5-46.7 13.7m8.7-23.5-45.2 14.5m8.4-23.4-43.9 15.2m8.6-23.2-42.5 16m9.1-23.2-41.2 16.9m9.8-23-39.7 17.8m10.8-22.8-38.3 18.7m12-22.7-36.8 19.6m13.3-22.5-35.2 20.6m15.7-22.3-33.2 21.6m19.8-21.6-30.7 22.7m19.6-22-28.4 23.8m18.6-22.7-26.2 24.7m17.1-23.3-24.1 25.6m15.4-24.1-21.9 26.5m13.2-24.8-19.4 27.4m10.9-25.7-17 28.3m8.4-26.4-14.2 29.1m5.8-27.2-11.5 30m3.4-27.9-8.6 30.8m.9-28.6-5.6 31.6m-1.4-29.2-2.4 32.3m-3.7-29.9.9 33.2m-5.9-30.6 4.3 33.9m-9-31.3 7.9 34.5m-12-31.9 11.6 35.2m-15.1-32.6 15.3 35.8m-18.7-33.2 19.1 36.4m-22.8-33.9 23 36.9m-27.1-34.5 26.7 37.4m-31.7-35.1 30.4 37.9m-36.5-35.6 34.2 38.3m-41.5-36.1 38 38.7m-46.7-36.5 41.6 39m-52.2-36.8 45.1 39.4m-57.5-37.1 48.7 39.7m-64-37.2 52 39.9m-71.7-37.1 55 40.2m-79.2-37L1356 514m-85.2-36.7 59.8 40.7m-88.6-36.6 61.7 41m-84.5-37.1 64.5 41.2m-84-37.6 67.8 41.4m-86.6-37.7 71.5 41.6m-89.5-38 75.6 41.7m-92.6-38.3 80 41.8m-96.2-38.6 85 41.8m-100.4-38.9 90.5 41.8m-105-39.3 96.7 41.6M1087 510.1l103.8 41.2m-115.5-40.2 111.4 41m-122.2-40.7 119.8 40.4m-129.7-41.2 129.1 39.9m-138.2-41.9 139.3 39m-148-42.4 150.6 38.1m-159.6-43 163.2 37m-173.4-43.2 177 35.6m767.2 3.8-53.6 9.6m18-21-51.9 10.4m15.3-21.6-50.2 11.1m13-21.9-48.7 11.8m11.3-22.1-47.3 12.5m10-22.3-45.7 13.4m9.2-22.4-44.4 14.2m8.9-22.4-43 15.2m9.1-22.4-41.7 16m9.6-22.3-40.4 17m10.5-22.2-39 18m11.5-22.1-37.5 19m12.7-22.1-36 20m14.1-21.9-34.5 20.9m17-21.6-32.4 22.1m21.5-21-30 23.2m21.2-21.4-27.7 24.1m20.1-22.1-25.6 25m18.6-22.7-23.4 25.9m16.9-23.5-21.1 26.8m14.9-24.2-18.7 27.6m12.6-25-16 28.5m10.2-25.8-13.3 29.4m7.6-26.6-10.4 30.2m5.2-27.3-7.6 31m2.9-28-4.5 31.8m.7-28.7-1.3 32.6m-1.5-29.3 2.1 33.2m-3.7-29.9 5.6 33.9m-6.7-30.7 9.1 34.6m-9.5-31.3 12.6 35.2m-12.4-32 16.3 35.9m-15.9-32.7 20 36.4m-19.8-33.4 23.8 36.9m-24.2-34 27.7 37.4m-29-34.6 31.4 37.9m-33.7-35.2 35 38.3m-38.5-35.7 38.8 38.7m-43.9-36.2 42.5 39.1m-49.6-36.5 46.1 39.4m-54.9-36.8 49.6 39.7m-61.6-37 52.9 40.1m-69.6-37 56.1 40.3M1356 514l59 40.6m-84.4-36.6 61.6 40.8m-88.5-36.4 64.1 41m-84.1-36.9 67.4 41.2m-83.6-37.4 71.2 41.5m-86.3-37.6 75.2 41.6m-89.1-37.9 79.6 41.7m-92.2-38.2 84.5 41.8m-95.7-38.6 89.7 41.8m-99.6-38.9 95.6 41.7m-103.9-39.4 102.3 41.6m-108-40.1 109.4 41.4m-113.5-40.6 117.4 41m-119.8-41.3 126.1 40.6m-126.7-41.9 135.6 40m-134.5-42.9 146.1 39.5m-143.5-43.8L1345 582m-154-44.7 170.3 37.8m-166.7-45.4 184.2 36.7m593-1.4-55.7 7m24.7-18-54.1 7.9m21.5-18.8-52.5 8.7m18.6-19.3-50.9 9.4m16-19.9-49.4 10.4m13.7-20.5-47.8 11.3m11.8-20.9-46.3 12.2m10.6-21.1-45 13.2m9.8-21.4-43.6 14.2m9.5-21.4-42.3 15.1m9.7-21.5-40.9 16.3m10.1-21.6-39.5 17.3m11-21.5-38.2 18.3m12.2-21.4-36.8 19.3m13.5-21.4-35.3 20.4m14.9-21.4-33.7 21.5m18.3-21-31.8 22.4m23.3-20.2-29.4 23.4m22.9-20.7-27.3 24.4m21.8-21.5-25.2 25.4m20.4-22.2-23 26.2m18.8-22.9-20.7 27m16.9-23.6-18.1 27.9m14.7-24.4-15.5 28.8m12.4-25.2-12.8 29.6m10-26-10 30.4m7.6-26.7-6.9 31.1m5.3-27.3-3.9 31.8m3.3-27.9-.7 32.5m1.3-28.6 2.7 33.3m-.8-29.3 6.1 33.9m-3.7-30 9.6 34.6m-6.5-30.7 13.3 35.2m-9.4-31.3 16.9 35.7m-12.8-32 20.5 36.2m-16.5-32.7 24.2 36.8m-20.7-33.4 27.9 37.3m-25.5-34 31.6 37.7m-30.3-34.6 35.2 38.1m-34.9-35.1 38.9 38.5m-40.3-35.6 42.6 39m-46.1-36.1 46.2 39.3m-51.5-36.4 49.6 39.7m-58.3-36.6 53 39.9m-66.5-36.6 56.1 40.3m-74.7-36.6 59.3 40.6m-82.1-36.4 62.4 40.8m-86.8-36.2 65.5 41.1m-82.2-36.8 69.2 41.3m-81.6-37.2 73.2 41.5m-84.3-37.5 77.5 41.6m-87-37.8 82.2 41.8m-89.9-38.2 87.3 41.8m-93.3-38.6 93 41.9m-97-39.1 99.1 41.8m-100.7-39.6 105.9 41.7m-104.5-40.4 113.4 41.5m-109.5-41.1 121.5 41.2m-115.2-41.9 130.4 40.9m-121.5-42.8 140 40.5m-128.4-43.9 150.5 40M1345 582l161.9 39.5m-145.6-46.4 174.5 38.8m-157-47.5 188.3 38.1m349-32.5-54.2 6.1m24.8-16.2-52.8 7m21.8-17.1-51.2 8m18.9-17.9-49.7 9.1m16.3-18.6-48.1 10m14-19.2-46.7 11.1m12.2-19.8-45.3 12.2m10.9-20.1-44 13.3m10.2-20.5-42.7 14.4m9.9-20.7-41.3 15.5m10.1-20.7-40.1 16.5m10.7-20.8-38.8 17.7m11.6-20.9-37.4 18.8m12.8-20.9-36 19.9m14.2-20.9-34.6 20.9m15.8-20.8-33 21.9m19.5-20.5-31.1 23m25-19.8-28.8 24m24.4-20.3-26.7 24.8m23.3-20.9-24.6 25.6m22-21.6-22.3 26.5m20.4-22.4-19.9 27.4m18.7-23.1-17.4 28.2m16.6-23.8-14.7 28.9m14.3-24.5-11.9 29.7m11.9-25.3-8.9 30.5m9.6-26.1-6 31.3m7.4-26.8-2.9 32m5.5-27.4.5 32.6m3.5-27.9 3.9 33.2m1.4-28.6 7.2 33.9m-1.3-29.3 10.7 34.5m-3.9-30 14.1 35m-6.6-30.6 17.5 35.5m-9.8-31.3 21 36.1m-13.3-32 24.5 36.5m-17.3-32.6 27.9 37m-21.8-33.3 31.4 37.4m-26.5-33.9 34.9 37.9m-30.9-34.5 38.4 38.3m-36.1-34.9 41.9 38.7m-41.8-35.5 45.3 39.1m-47.2-35.8 48.6 39.4m-53.9-36.1 51.7 39.9m-62.1-36.2 54.9 40.1m-70.3-36.1 58.1 40.5m-77.8-36.1 61.4 40.8m-82.7-35.9 65.3 41m-78.3-36.5 69.4 41.3m-77.8-37 73.5 41.4m-80.3-37.3 78.2 41.6m-83-37.6 83.2 41.7m-85.8-38.1 88.6 41.8m-88.9-38.5 94.4 41.8m-92.3-39.1 100.8 41.8m-95.6-39.7 107.9 41.7m-99-40.6 115.6 41.5m-103.6-41.4 123.8 41.4m-108.6-42.4 132.6 41.1M1459.3 631l142.2 40.8m-120.1-44.7 152.4 40.6m-126.9-46.2 163.5 40.3m-134.6-47.9 175.7 40m-144.4-49.4 188.9 39.6m48.5-84.3-50.1 7.7m19.3-16.5-48.6 8.8m16.8-17.4-47.1 10m14.4-18.1-45.7 11.2m12.6-18.8-44.3 12.3m11.2-19.1-43 13.5m10.5-19.6-41.6 14.7m10.2-19.9-40.4 15.9m10.4-20.1-39.1 17.1m11-20.2-37.8 18.2m12-20.3-36.4 19.4m13.2-20.4-35 20.6m14.6-20.6-33.5 21.7m16.3-20.6-32 22.7m20.4-20.2-30.1 23.7M1419 506l-28 24.5m25.7-20-25.8 25.4m24.5-20.7-23.6 26.2m23.3-21.3-21.3 27m21.8-22-18.8 27.8m20.1-22.7-16.2 28.5m18.1-23.4-13.4 29.3m15.8-24.1-10.5 30m13.5-24.8-7.7 30.7m11.3-25.5-4.6 31.3m9.1-26.1-1.4 32m7.4-26.8 1.7 32.7m5.7-27.4 5 33.3m3.6-28 8.4 33.8m1-28.6 11.7 34.3m-1.5-29.3 15 34.8m-4.1-29.9 18.3 35.3m-7.1-30.5 21.5 35.7m-10.3-31.2 24.7 36.2m-14.1-31.8 27.9 36.6m-18.3-32.5 31 37.1m-22.6-33.1 34.2 37.5m-26.7-33.7 37.5 38m-31.7-34.2 40.8 38.3m-37.3-34.7 44.1 38.7m-42.7-35.1 47.3 39.2m-49.5-35.4 50.2 39.5m-57.4-35.6 53.2 39.9m-65.4-35.5 56.4 40.2m-72.8-35.5 60.2 40.6m-77.6-35.5 64.4 40.8m-73.3-36 68.7 41m-73-36.6 73.1 41.3m-75.2-37 77.8 41.5m-77.6-37.4 82.9 41.6m-80.1-37.9 88.4 41.7m-82.9-38.4 94.4 41.8m-85.9-39.1 100.9 41.8m-88.6-39.8 107.9 41.7m-91.3-40.8 115.3 41.7m-95.1-41.7 123.4 41.5m-99.4-42.8 132 41.5m-103.9-44.1 141.2 41.4m-108.9-45.5 150.9 41.3m-114.3-47.2 161.4 41.2m-120.3-49.1 172.8 41.2m-128.3-51 184.9 41.2m-215.8-125.5-47.2 8.8m16.9-16.2-45.8 10.1m14.5-17-44.4 11.4m12.7-17.9-43.1 12.8m11.3-18.4-41.6 13.9m10.5-18.8-40.4 15.3m10.2-19.3-39.1 16.5m10.4-19.5-37.9 17.8m11.1-19.8-36.5 19m12.1-19.9-35.3 20.2m13.5-20-33.9 21.3m15-20.2-32.5 22.4m16.8-20.3-30.9 23.3m21.2-19.8-29.2 24.3m27.5-19.3-27.2 25.1m27.1-19.7-25.2 25.9m26.1-20.4-22.9 26.7m24.9-21-20.5 27.4m23.5-21.6-18.1 28.1m22-22.3-15.5 28.8m20.2-22.9-12.7 29.5m18-23.6-9.9 30.1m15.7-24.2-7 30.7m13.7-24.9-4 31.4m11.7-25.5-.9 32m10-26.1 2.3 32.5m8.4-26.6 5.5 33m6.5-27.2 8.6 33.5m4.1-27.8 11.9 34m1.6-28.5 15 34.5m-.8-29.1 18.1 34.9m-3.7-29.7 21 35.4m-6.6-30.4 23.9 35.8m-10.1-31 26.9 36.2m-14.2-31.6 29.8 36.6m-18.2-32.2 32.8 37m-22-32.7 35.8 37.4m-26.7-33.3 38.9 37.8m-32.1-33.8 41.9 38.3m-37.3-34.2 44.7 38.6m-44-34.5 47.5 39m-51.7-34.7 50.3 39.5m-59.3-34.8 53.5 39.8m-66.1-34.7 57.5 40.1m-70.7-34.8 62 40.5m-66.6-35.5 66.5 40.7m-66.4-36 71.1 41m-68.5-36.5 75.9 41.2m-70.6-37 81.1 41.4m-72.8-37.6 86.6 41.5m-75.1-38.1 92.6 41.6m-77.6-38.9 99 41.6m-79.7-39.7 106.1 41.6m-82.1-40.7 113.4 41.6m-85.1-41.8 121.1 41.7m-88.5-43 129.3 41.6m-92-44.3 137.9 41.7m-95.9-45.9 147.1 41.8m-100-47.8 156.7 42m-104.2-49.9 166.9 42.3m-373.3-168.8-46.2 9.1m17.3-15.2-44.7 10.5m14.8-16.1-43.3 11.8m12.9-16.9-41.9 13.1m11.6-17.6-40.6 14.6m10.7-18.1-39.3 15.8m10.4-18.6-38.1 17.2m10.6-18.9-36.7 18.5m11.3-19.3-35.6 19.8m12.4-19.5-34.2 21m13.8-19.7-32.8 22m15.3-19.8-31.4 23.1m17.3-20.1-30 24.2m22-19.7-28.3 25m28.6-19.2-26.6 25.8m28.5-19.6-24.7 26.4m27.9-20.1-22.4 27.1m26.8-20.7-20.1 27.8m25.5-21.3-17.6 28.4m24.1-21.9-15 29.1m22.5-22.5-12.3 29.7m20.4-23.2-9.6 30.3m18.3-23.8-6.7 30.9m16.4-24.4-3.9 31.4m14.7-24.9-.8 31.9m13.1-25.5 2.2 32.4m11.7-26 5.2 32.8m9.9-26.5 8.4 33.3m7.6-27.1 11.5 33.7m5.1-27.7 14.5 34.1m2.8-28.3 17.3 34.5m0-28.8 20.1 34.8m-2.8-29.4 22.8 35.2m-6-30 25.4 35.6m-9.8-30.6 28.2 36m-13.6-31.2 31 36.4m-17.2-31.7 33.8 36.8m-21.6-32.3 36.6 37.2m-26.8-32.7 39.4 37.6m-32-33.2 41.9 38m-38.4-33.5 44.5 38.5m-45.9-33.7 47.2 38.9m-53-33.9 50.4 39.3m-59-33.9 54.4 39.7m-63.1-34 59.2 40m-59.3-34.8 63.8 40.3m-59.1-35.3 68.3 40.5m-60.9-35.8 73.1 40.7m-62.6-36.3 78.3 40.9m-64.5-37 83.8 41.1m-66.3-37.6 89.7 41.1m-68.3-38.4 96.1 41.3m-69.7-39.4 102.7 41.4m-71.4-40.5 109.6 41.5m-73.6-41.6 116.9 41.5m-76.1-42.9 124.5 41.7m-78.6-44.3 132.5 41.9M1604.3 573l-43.8 10.8m15.3-15.1-42.3 12.3m13.3-16.1-40.9 13.8m11.9-16.8-39.6 15.2m11-17.5-38.3 16.7m10.6-18.1-36.9 18m10.8-18.4-35.7 19.3m11.4-18.8-34.3 20.6m12.5-19.1-33 21.7m14-19.4-31.6 23m15.5-19.7-30.2 24m17.5-19.9-28.7 25m22.4-19.7-27.2 25.8m29.2-19.2-25.7 26.4m29.5-19.6-23.8 27.1m29.3-20.1-21.8 27.7m28.5-20.6-19.3 28.2m27.2-21.1-16.8 28.8m25.9-21.6-14.2 29.3m24.4-22.1-11.7 29.8m22.5-22.7-8.9 30.4m20.5-23.3-6.2 30.8m18.7-23.8-3.4 31.3m17.3-24.3-.6 31.7m15.9-24.8 2.3 32.1m14.6-25.3 5.2 32.6m13.1-25.8 8.1 32.9m11-26.3 11 33.2m8.6-26.8 13.8 33.5m6.3-27.3 16.4 33.9m3.7-27.9 18.9 34.3m1.1-28.5 21.4 34.6m-2-29 23.9 34.9m-5.5-29.5 26.2 35.3m-8.8-30.1 28.6 35.7m-12-30.6 31.1 36.1m-16.1-31.2 33.6 36.5m-21-31.6 36 36.9m-26.1-32.1 38.4 37.4m-32.3-32.4 40.6 37.8m-39.3-32.6 43.2 38.2m-45.8-32.8 46.5 38.7m-51.1-32.9 50.7 39.1m-54.6-33.1 55.5 39.4m-51-33.9 60.1 39.7m-50.9-34.5 64.5 39.9m-52.3-35 69.2 40.2m-53.5-35.6 74.2 40.4m-54.9-36.3 79.6 40.6m-56.2-37.1 85.3 40.7m-57.5-37.8 91.3 40.8m-58.3-38.8 97.6 40.9m-59.4-39.9 104 41m-60.7-41.1 110.6 41.2m-460.9-257.8-42.6 11.4m15.6-14.2-41.2 12.9m13.6-15.2-39.7 14.5m12-16.1-38.3 15.9m11-16.7-36.9 17.4m10.6-17.5-35.5 18.9m10.6-18-34.1 20.2m11.2-18.4-32.7 21.5m12.2-18.9-31.3 22.8m13.7-19.2-29.9 23.9m15.2-19.6-28.4 25m17.2-19.9-27 25.9m22.2-19.8-25.5 26.7m29-19.5-24.2 27.3m29.9-19.8-22.5 27.7m30-20.1-20.5 28.2m29.7-20.6-18.2 28.8m28.6-21.1-15.8 29.3m27.5-21.6-13.2 29.7m25.9-22-10.6 30.1m24.2-22.4-8.1 30.4m22.4-22.9-5.5 30.9m20.8-23.4-2.8 31.2m19.5-23.8-.2 31.6m18.4-24.3 2.5 31.9m17.3-24.6 5.2 32.2m16-25.1 7.8 32.4m14.2-25.5 10.4 32.7m12-26 12.8 33m9.9-26.4 15.1 33.3m7.5-26.9 17.4 33.5m5.1-27.4 19.5 33.9m2.4-28 21.5 34.2m-.8-28.4 23.7 34.5m-3.9-28.9 25.8 34.9m-6.7-29.4 27.8 35.2m-10.3-29.9 29.9 35.6m-14.9-30.3 32 36.1m-19.7-30.8 34 36.5m-25.7-31.1 36.2 36.9m-32.3-31.3 38.9 37.5m-38.2-31.6 42.3 37.9m-42.7-31.7 46.5 38.3m-45.6-32 51.4 38.6m-42.3-32.8 56 38.9m-42.4-33.5 60.5 39.2m-43.6-34 65.2 39.4m-44.5-34.6 70.1 39.6m-45.4-35.3 75.3 39.7m-46.2-36.1 80.6 39.9m-46.8-36.9 86.3 40m-456-283.1-41.5 12.1m15.9-13.4-39.9 13.7m13.8-14.4-38.5 15.2m12.2-15.4-36.9 16.8m11-16.1-35.4 18.2m10.5-16.8-33.9 19.7m10.4-17.5-32.5 21.1m11-18-31 22.4m11.9-18.5-29.6 23.7m13.4-19-28.1 24.8m14.9-19.4-26.6 25.8m16.8-19.8-25.1 26.7m21.8-19.8-23.7 27.5m28.5-19.7-22.5 28m29.9-20.1-20.9 28.5m30.4-20.4-18.9 28.9m30.4-20.7-16.7 29.2m29.5-21-14.3 29.6m28.6-21.5-12 30m27.3-21.9-9.5 30.3m25.6-22.3-7 30.6m23.9-22.6-4.5 30.8m22.5-23-2.1 31.1m21.4-23.3.3 31.3m20.6-23.7 2.7 31.6m19.8-24 5 31.7m18.8-24.4 7.3 32m17.3-24.8 9.5 32.2M1545 752l11.7 32.4m13.3-25.5 13.8 32.6m11.1-26 15.6 32.8m9-26.3 17.3 33m6.6-26.8 19.1 33.4m3.8-27.3 20.8 33.7m1.1-27.7 22.5 34m-1.4-28.2 24.3 34.4m-4.7-28.7 26.1 34.8m-9-29 27.9 35.1m-13.6-29.4 29.8 35.6m-19.3-29.8 32 36.1m-25.4-29.9 34.9 36.5m-30.8-30.2 38.5 37m-34.7-30.4 42.8 37.4m-37-30.8 47.7 37.7m-34-31.6 52.1 37.9m-34-32.2 56.4 38.2m-34.8-32.8 60.9 38.4m-35.3-33.4 65.5 38.5m-35.6-34.1 70.3 38.7m-493.9-302.8-40.4 12.8m16.4-12.5-38.8 14.5m14.1-13.7-37.1 16m12.4-14.6-35.6 17.6m11.2-15.5-33.9 19.2m10.5-16.3-32.4 20.6m10.3-17-30.7 22m10.7-17.6-29.1 23.3m11.4-18.1-27.5 24.5m12.8-18.7-26 25.7m14.3-19.3-24.4 26.7m16.1-19.8-22.9 27.7m21-20-21.6 28.3m27.6-20-20.3 28.7m29.3-20.3-18.9 29.1m30.4-20.6-17.2 29.5m30.9-21-15.1 29.8m30.3-21.2-12.9 30m29.5-21.5-10.5 30.2m28.3-21.8-8.2 30.4m26.8-22.1-5.9 30.6m25.3-22.4-3.7 30.8m24.1-22.7-1.5 31m23.2-23 .8 31.1m22.5-23.2 2.9 31.2m21.9-23.5 4.9 31.3m21.2-23.7 6.8 31.4m20-24 8.7 31.6m18.3-24.4 10.4 31.7m16.7-24.6 11.9 31.8m14.8-25 13.4 32.1m12.9-25.4 14.8 32.3m10.9-25.7 16.1 32.5m8.5-26.1 17.6 32.8m6-26.5 19 33.1m3.9-26.9 20.4 33.4m1-27.3 21.8 33.8m-2.9-27.7 23.4 34.2m-7.2-28 25.1 34.6m-12.4-28.3 27.4 35.2m-17.9-28.6 30.4 35.6m-22.7-28.8 34.1 36m-26-29 38.4 36.4m-27.7-29.5 43.2 36.6m-25.1-30.3 47.6 36.9m-25.2-30.9 51.7 37.1m-25.6-31.5 56 37.2M1436 620.1l-39.6 13.6m17.2-11.6-37.8 15.1m14.8-12.8-36.1 16.9m12.9-13.9-34.3 18.4m11.6-14.7-32.6 19.9m10.7-15.6-30.8 21.4m10.4-16.4-29.1 22.9m10.7-17.2-27.5 24.2m11.4-17.8-25.8 25.4m12.6-18.4-24.1 26.4m14-19-22.5 27.4m15.7-19.5-20.9 28.3m20.3-20-19.5 29m26.8-20.3-18.5 29.4m28.9-20.6-17.2 29.7m30.4-20.8-15.7 29.9m31.5-21.1-14 30.1m31.4-21.3-11.9 30.3m30.9-21.6-9.8 30.4m29.9-21.8-7.6 30.4m28.5-21.9-5.5 30.6m27.1-22.2-3.5 30.6m26.1-22.3-1.5 30.7m25.5-22.6.4 30.7m25-22.7 2.3 30.8m24.5-23 4.1 30.9m23.9-23.2 5.7 30.9m23-23.3 7.2 30.9m21.5-23.6 8.6 31m20-23.8 9.9 31.1m18.3-24 11 31.2m16.7-24.3 12 31.4m15-24.6 13.1 31.6m13-24.9 14.2 31.8m10.8-25.2 15.3 32.1m9-25.6 16.4 32.5m6.4-26 17.6 32.8m2.9-26.3 18.9 33.2m-1-26.6 20.7 33.7m-5.7-26.8 23 34.1m-10.5-27.1 26 34.6m-14.6-27.4 29.8 35m-17.4-27.6 34.1 35.2m-18.6-28.1 38.6 35.5m-16.1-28.9 42.7 35.7m-550.8-327.7-38.8 14.3m18.2-10.8-36.9 16m15.6-11.9-35 17.5m13.6-13-33.2 19.1m12.2-13.9-31.3 20.7m11.2-14.9-29.4 22.2m10.7-15.7-27.5 23.5m10.7-16.5-25.7 24.8m11.3-17.2-23.9 26m12.4-18-22.2 27.1m13.7-18.7-20.6 28.1m15.4-19.3-19 28.9m19.8-19.9-17.7 29.5m26-20.4-16.7 29.9m28.4-20.8-15.6 30.2m30.3-21.1-14.4 30.4m31.9-21.4-12.8 30.5m32.3-21.5-11.1 30.5m32.2-21.7-9.2 30.5m31.5-21.9-7.3 30.6m30.3-21.9-5.4 30.4m29-22-3.6 30.5m28.2-22.1-1.9 30.3m27.8-22.2-.2 30.4m27.5-22.3 1.4 30.3m27.2-22.4 2.8 30.2m26.8-22.5 4.1 30.2m26.1-22.6 5.3 30.2m24.8-22.8 6.4 30.2m23.5-22.9 7.4 30.3m21.9-23.1 8.2 30.4m20.5-23.3 9 30.6m19.1-23.6 9.7 30.8m17.5-23.9 10.5 31m15.6-24.1 11.4 31.3m14-24.4 12.3 31.5m11.7-24.7 13.2 31.9m8.6-25 14.6 32.3m5.1-25.2 16.3 32.7m1-25.4 18.8 33.1m-3.3-25.6 21.9 33.5m-6.7-25.9 25.7 33.9m-9-26.3 29.9 34.1M1357.6 648l-37.9 15m19.2-9.8-36.1 16.7m16.7-11.1-34 18.3m14.4-12.2-32 19.9m12.9-13.1-30 21.3m11.8-14-28 22.8m11.2-15-26 24.2m11-15.9-24 25.4m11.4-16.6-22.2 26.6m12.4-17.5-20.4 27.6m13.5-18.2-18.8 28.5m15.2-18.9-17.1 29.3m19.2-19.7-15.9 29.9m25.2-20.4-15.1 30.3m27.9-20.9-14.2 30.6m30.1-21.3-13.1 30.7m32.2-21.6-11.9 30.8m33.1-21.8-10.6 30.7m33.6-21.9-9.1 30.6m33.3-21.9-7.4 30.5m32.3-22-5.7 30.4m31.1-21.9-4.1 30.2m30.4-22-2.6 30.2m30.2-22-1.2 30.1m30.1-22.1.2 29.9m29.8-22.1 1.4 29.8m29.5-22.1 2.4 29.7m29-22.1 3.2 29.6m28-22.2 4.1 29.6m26.8-22.2 4.7 29.6m25.4-22.3 5.4 29.6m24.1-22.3 5.9 29.7m22.9-22.5 6.5 29.9m21.5-22.8 7 30.1m20-22.9 7.7 30.4m18.6-23.3 8.4 30.7m16.5-23.5 9.4 31m13.8-23.7 10.9 31.4m10.5-23.9 12.8 31.7m7-24 15.2 32.1m3.4-24.2 18.4 32.4m.6-24.4 21.9 32.6M1319.7 663l-37.4 15.8m20.5-8.9-35.2 17.3m17.9-10.1-33.2 18.9m15.6-11.2-30.9 20.5m13.8-12.3-28.9 22m12.7-13.2-26.7 23.3m11.9-14.1-24.6 24.6m11.6-15.1-22.6 25.9m11.8-15.9-20.6 27m12.6-16.9-18.8 28m13.5-17.7-17 28.9m15.1-18.5-15.4 29.7m18.7-19.5-14.2 30.3m24.3-20.4-13.4 30.6m27.1-20.9-12.6 30.9m29.6-21.5-11.8 31m32.1-21.8-10.9 31m33.4-22.1-9.8 30.9m34.3-22.2-8.6 30.7m34.5-22.1-7.3 30.5m33.9-22.1-6 30.3m33-22-4.6 30.1m32.4-21.9-3.3 30m32.3-21.9-2.1 29.7m32.4-21.9-1 29.5m32.2-21.8-.1 29.3m32-21.7.7 29.2m31.5-21.7 1.4 29m30.7-21.6 1.8 28.9m29.7-21.5 2.4 28.9m28.4-21.6 2.7 29m27.3-21.6 3 29m26.4-21.6 3.4 29.1m25.1-21.8 3.9 29.4m23.8-21.9 4.4 29.5m22.6-22.1 5.1 29.8m20.8-22.3 6.2 30.1m18.5-22.4 7.6 30.4m15.7-22.6 9.5 30.8m12.7-22.7 11.9 31m9.9-22.8 14.9 31.1m-641.6-350.2-36.8 16.6m22.1-8.2-34.6 18.1m19.3-9.3-32.3 19.6m17-10.3-30.1 21m15-11.3-27.7 22.4m13.7-12.3-25.5 23.8m12.8-13.3-23.3 25m12.3-14.2-21.2 26.2m12.4-15.1-19.1 27.3m12.9-16.2-17.2 28.3m13.7-17.1-15.4 29.1m15.1-17.9-13.8 29.8m18.3-19-12.6 30.4m23.5-20.2-11.8 30.9m26.3-20.9-11.1 31m28.9-21.5-10.3 31.1m31.5-21.9-9.6 31.1m33.2-22.3-8.8 31m34.5-22.5-7.9 30.8m35.1-22.4-7 30.5m34.9-22.3-5.9 30.2m34.3-22.1-4.9 30m34-21.9-3.9 29.6m34.1-21.8-2.8 29.4m34.2-21.8-2 29.1m34.1-21.6-1.4 28.9m34.1-21.4-.9 28.6m33.8-21.3-.6 28.5m33.1-21.2-.3 28.4m32.4-21-.1 28.3m31.2-20.9.1 28.2m30.2-20.8.3 28.4m29.5-20.9.4 28.5m28.6-20.9.9 28.6m27.3-21 1.5 28.8m26.2-21.1 2.4 29m24.6-21.2 3.5 29.3m22.6-21.3 4.9 29.5m20.3-21.3 6.8 29.6m17.8-21.3 9.2 29.8m-662.8-355.1-36.4 17.3m23.9-7.4-34 18.7m21-8.4-31.7 20.1m18.6-9.4-29.3 21.5m16.6-10.4-27 22.8m15.2-11.3-24.6 24.1m14.1-12.4-22.3 25.3m13.4-13.3-20 26.4m13.3-14.2-18 27.3m13.7-15.2-16 28.3m14.3-16.3-14.1 29.2m15.4-17.3-12.4 29.8m18.1-18.4-11 30.4m22.7-19.7-10.3 30.7m25.5-20.6-9.6 31m28.2-21.4-9 31.1m30.9-21.9-8.4 31m32.8-22.3-7.7 30.9m34.3-22.6-7.1 30.7m35.2-22.6-6.4 30.4m35.4-22.5-5.8 30.1m35.2-22.2-5 29.7m35.1-22-4.2 29.4m35.5-21.8-3.6 29m35.8-21.7-3 28.7m35.7-21.4-2.6 28.4m35.8-21.2-2.5 28.2m35.7-21-2.5 28m35.3-20.8-2.6 27.8m34.9-20.5-2.6 27.7m33.9-20.4-2.6 27.8m33.1-20.2-2.6 27.9m32.5-20.3-2.3 28m31.8-20.3-2 28.1m30.8-20.3-1.2 28.3m29.8-20.4-.3 28.4m28.4-20.3.8 28.4m26.7-20.2 2.3 28.6m24.8-20.3 4.1 28.7m22.9-20.2 6.4 28.8m-705.6-366.6-36.1 18.1m26-6.8-33.7 19.4m23-7.7-31.1 20.7m20.4-8.6-28.6 21.9m18.2-9.5-26.1 23.2m16.7-10.4-23.7 24.3m15.5-11.4-21.3 25.4M1143 799l-19 26.5m14.3-13.4-16.8 27.4m14.5-14.3-14.7 28.2m14.9-15.3-12.9 28.9m15.9-16.4-11.2 29.7m18.3-17.7-9.8 30.2m22.2-19.2-9 30.6m24.9-20.2-8.4 30.8m27.6-21.1-7.9 31m30.4-21.9-7.5 31m32.6-22.4-7.1 30.8m34.3-22.7-6.8 30.6m35.6-22.8-6.5 30.3m36.1-22.7-6.1 30m36.3-22.5-5.7 29.7m36.6-22.3-5.3 29.4M1420 957l-4.9 28.9m37.7-21.9-4.6 28.6m37.7-21.6-4.5 28.2m37.8-21.2-4.6 27.9m37.8-20.9-4.8 27.7m37.5-20.7-4.9 27.6m37.2-20.4-5 27.6m36.3-20.2-5.1 27.6m35.6-19.9-5 27.5m35.2-19.8-4.7 27.6m34.5-19.8-4.1 27.6m33.7-19.6-3.5 27.6m33-19.6-2.5 27.7m31.7-19.6-1.4 27.8m30.4-19.4v27.7m28.9-19.3 1.8 27.7m27.5-19.1 3.7 27.5m-745.4-376-36 18.8m28.3-6.2-33.5 20m25.4-7-31 21.1m22.8-7.8-28.3 22.3m20.4-8.6-25.7 23.4m18.7-9.5-23.1 24.4m17.3-10.4-20.5 25.4m16.2-11.2-18.1 26.3m15.6-12.3-15.7 27.2m15.5-13.3-13.6 27.9m15.6-14.3-11.6 28.6m16.3-15.3-9.8 29.2m18.3-16.7-8.6 29.7m21.8-18.3-7.8 30.1m24.3-19.5-7.1 30.4m26.8-20.5-6.7 30.6m29.6-21.5-6.4 30.6m31.9-22.2-6.4 30.6m33.9-22.7-6.3 30.4m35.4-22.9-6.3 30.2m36.3-22.9-6.2 29.9m36.8-22.7-6.2 29.6m37.5-22.5-6.2 29.2m38.5-22.5-6.1 29m39.2-22.3-6.2 28.5m39.4-21.9-6.3 28.2m39.5-21.5-6.5 27.9m39.5-21.1-6.8 27.7m39.4-20.8-7 27.6m39.2-20.4-7.2 27.4m38.4-20-7.1 27.3m37.7-19.7-6.9 27.3m37.4-19.5-6.5 27.2m36.9-19.4-5.9 27.2m36.1-19.2-5.1 27.1m35.6-19-4.2 27M1137 749.6l-36.1 19.7m30.9-5.9-33.6 20.6m28-6.5-30.9 21.7m25.4-7.2-28.2 22.6m22.9-7.8-25.4 23.5m21-8.6-22.7 24.4m19.5-9.4-20.1 25.3m18.2-10.2-17.6 26m17.5-11.1-15.2 26.8m17.1-12.2-13 27.5m17-13.2-11 28.1m17.5-14.2L1109 938m18.9-15.5-7.7 29.1m21.7-17.3-6.9 29.5m24.1-18.6-6.3 29.8m26.4-19.7-6 30m29.2-20.9-5.8 30.1m31.3-21.7-5.8 30.1m33.4-22.4-5.9 30.1m35-22.8-6.1 29.9m36.2-22.9-6.4 29.7m37-22.8-6.6 29.5m37.9-22.8-6.7 29.3m39.1-22.8-7.1 28.9m40.1-22.7-7.5 28.7m40.6-22.4-7.8 28.4m40.8-22-8.3 28.2m41-21.6-8.5 27.9m40.9-21.1-8.6 27.7m40.6-20.7-8.5 27.5m39.8-20.2-8.3 27.3m39.1-19.7-8 27.1m38.9-19.4-7.5 27M1103.3 755l-38.8 19.8m36.4-5.5-36.2 20.6m33.5-5.9-33.7 21.5m30.8-6.3-31 22.2m28.2-6.8-28.3 23m25.8-7.3-25.6 23.8m23.9-8-22.8 24.5m22.2-8.6-20.2 25.2m20.8-9.4-17.5 25.8m19.8-10.1-15.1 26.3m19.2-11-12.8 26.9m18.8-12-10.7 27.4m19-13.1-8.8 27.9m20-14.3-7.3 28.2m22.1-16-6.3 28.6m24.1-17.4-5.7 29m26.1-18.7-5.3 29.3m28.7-20.1-5.3 29.4m30.8-21-5.3 29.5m32.8-21.8-5.5 29.5m34.4-22.4-5.8 29.5m35.6-22.7-6.2 29.4m36.6-22.7-6.6 29.3m37.8-22.8-7.1 29m39.1-22.9-7.4 28.9m40-22.9-7.8 28.6m40.6-22.6-8.3 28.4m40.8-22.2-8.5 28.1m41-21.8-8.8 27.9m41.1-21.3-8.9 27.5m-491.2-327.6-39 21.1m39.2-6-36.6 21.7m36.4-6.1-33.9 22.2m33.7-6.3-31.3 22.8m31.2-6.6-28.5 23.4m28.7-6.9-25.8 23.9m26.9-7.4-23.2 24.6m25.2-8-20.4 25m23.7-8.6-17.8 25.5m22.5-9.3-15.2 25.9m21.6-10L1069 962m21-10.9-10.7 26.6m20.9-11.8-8.8 26.9m21.5-13-7.2 27.2m23-14.6-6.1 27.6m24.5-16-5.3 27.8m26.1-17.2-4.7 28m28.1-18.7-4.5 28.3m30-19.8-4.5 28.4m31.8-20.7-4.8 28.4m33.4-21.3-5.1 28.4m34.5-21.7-5.4 28.4m35.4-21.8-5.7 28.2m36.4-22-6 28.1m37.7-22.1-6.4 27.8m38.6-22.1-6.8 27.6m-397.3-325.4-42 22.3m44.9-7-39.6 22.5m42.2-6.8-37 22.9m39.5-6.8-34.5 23.2m36.9-6.7-31.7 23.6m34.4-6.8-29.1 24m32-7-26.4 24.4m30.1-7.2-23.6 24.6m28.4-7.6-21 25m26.9-8.1-18.5 25.2m25.8-8.6-16 25.5m24.7-9.2-13.7 25.6m24-9.9-11.5 26m23.6-10.9-9.5 26.1m23.8-11.9-7.8 26.3m24.7-13.3-6.5 26.4m25.7-14.6-5.4 26.6m26.8-15.8-4.8 26.7m28.4-17.1-4.2 26.6m29.7-18-4 26.6m31-18.9-3.9 26.6m32.2-19.5-3.9 26.4M980.6 802.9 938.1 827m47.8-8.6-40 24.3m45.2-8.2-37.6 24.3m42.6-7.9-35 24.5m40.2-7.6-32.5 24.5m37.8-7.3-29.8 24.6m35.4-7.2-27.1 24.8m33.6-7.4-24.5 25m31.9-7.6-21.9 25m30.3-7.9-19.4 25.2m29.2-8.3-17 25.2m28-8.8-14.8 25.3m27.3-9.2-12.7 25.3m26.8-10.1-10.7 25.4m26.7-11-9 25.3m27.2-12.2-7.6 25.4m27.9-13.4-6.7 25.5m28.7-14.6-5.8 25.5m30-16-5.4 25.6M930.1 811.9l-45.5 26.7m53.5-11.6L895 853.4m50.9-10.7-40.7 26.2m48.3-10.1-38.2 26m45.8-9.4-35.7 25.9m43.4-9L935.7 918m41.1-8.4-30.6 25.6m38.9-8-28 25.5m37.1-7.9-25.5 25.4m35.5-8-23 25.3m33.9-8-20.6 25.2m32.8-8.3-18.4 25.1m31.6-8.6-16.1 25m30.7-8.9-14.1 24.9m30.2-9.6-12.3 24.7m30-10.4-10.6 24.7m30.2-11.5-9.3 24.6M873.9 824.3l-48.4 30.2m59.1-15.9-46.1 29.5m56.5-14.7-43.7 29.1m53.9-13.6-41.4 28.5m51.5-12.6-39 28.1m49.1-11.6-36.5 27.6m46.8-10.9-34 27.3m44.5-10.1-31.5 26.9m42.4-9.4L928 979.2m40.7-9-26.6 26.1m39.1-8.8-24.3 25.8m37.6-8.6-21.9 25.5m36.3-8.7-19.7 25.1m35.2-8.7-17.6 24.9m34.2-8.9-15.7 24.5m33.6-9.4-13.9 24.4M825.5 854.5l-48.8 33.6m61.8-20L792 901m59.3-18.5-44.3 32m56.8-17.1-42 31.2m54.5-15.7-39.6 30.5m52.2-14.5-37.3 29.8m50.1-13.4-34.9 29.1m47.9-12.3-32.4 28.4m45.7-11.3-30 27.8m44.1-10.7-27.7 27.2m42.5-10.2-25.5 26.6m41.2-9.7-23.3 26m39.9-9.6-21.2 25.5m38.8-9.3-19.4 24.9m37.9-9.3-17.5 24.5M776.7 888.1l-49.1 37.6M792 901l-47 36.4m62-22.9-44.7 35.3m59.5-21.2-42.4 34.3m57.3-19.5-40.2 33.2m55.1-17.9-37.8 32.2m53-16.5-35.6 31.2m51.1-15.1-33.3 30.2m49-13.7-31.1 29.3m47.5-12.8-28.9 28.5m45.9-12.1-26.7 27.7m44.6-11.4-24.8 26.9m43.5-11-22.9 26.2M727.6 925.7l-49.3 42.1m66.7-30.4-47.1 40.7m64.4-28.3-45 39.3m62.1-26.2-42.8 37.9m59.9-24.2-40.6 36.6m57.9-22.3-38.5 35.3m55.9-20.6-36.3 34m54.1-18.9-34.2 32.8m52.1-17.2-32 31.6m50.6-15.9-30 30.4m49.2-14.8-28.1 29.4M678.3 967.8l-49 46.9m68.6-36.6-47 45.2m66.4-34.2-45 43.5m64.3-31.8-42.9 41.9m62.2-29.5-40.8 40.3m60.2-27.3-38.7 38.6m58.3-25.2-36.7 37m56.6-23.1-34.7 35.5m54.8-21.1-32.8 34m-172.8-87.2-48.5 52.4m70.1-43.8-46.6 50.4m68-41.1-44.6 48.4m66-38.3-42.7 46.5m64.1-35.7-40.7 44.5m62.2-33.2-38.8 42.7m60.4-30.9-37 40.8m-140.4-50.3-47.4 58.1m70.9-51.5-45.6 55.8" stroke="#fa0000" stroke-linecap="round" stroke-linejoin="round" fill="none"/></g></svg>