<svg width="120" height="30" viewBox="0 0 120 30" fill="none" xmlns="http://www.w3.org/2000/svg">
<path d="M2.7824 8.02615C-0.927467 11.736 -0.927467 17.7646 2.7824 21.4744C6.49227 25.1843 12.5208 25.1843 16.2307 21.4744L13.3591 18.6028C11.2366 20.7253 7.79429 20.7253 5.67182 18.6028C3.54934 16.4804 3.54934 13.038 5.67182 10.9156L2.7824 8.02615Z" fill="white"/>
<path d="M5.67182 10.8978C5.65398 10.9157 5.61831 10.9513 5.60047 10.9692L2.71106 8.09758C2.7289 8.07975 2.76457 8.04407 2.7824 8.02624C6.49227 4.31637 12.5208 4.31637 16.2307 8.02624L13.3591 10.8978C11.2366 8.77535 7.79429 8.77535 5.67182 10.8978Z" fill="url(#paint0_linear)"/>
<path d="M110.244 9.31042C113.24 9.31042 115.684 11.7361 115.684 14.7504C115.684 17.7468 113.258 20.1903 110.244 20.1903C107.247 20.1903 104.804 17.7646 104.804 14.7504H100.737C100.737 19.9941 105 24.2569 110.244 24.2569C115.488 24.2569 119.75 19.9941 119.75 14.7504C119.75 9.50662 115.488 5.24384 110.244 5.24384V9.31042Z" fill="white"/>
<path d="M20.3151 5.8681V23.704H24.453V9.5958H29.126L31.0166 5.8681H20.3151Z" fill="white"/>
<path d="M49.2628 5.8681L43.2699 17.5506L36.9738 5.8681H32.2473L41.0047 21.9918L36.9381 29.9822H41.5933L53.918 5.8681H49.2628Z" fill="white"/>
<path d="M64.8692 5.24384C61.088 5.24384 58.6088 5.77891 55.7372 6.38533V30.0001H59.8751V23.8824C61.3555 24.0964 62.9429 24.2926 64.8692 24.2391C70.4875 24.0786 73.8941 20.4579 73.8941 14.786C73.8941 9.07856 70.2735 5.24384 64.8692 5.24384ZM66.8133 19.8871C64.8513 20.7076 61.8192 20.1725 59.893 19.8871V9.50662C61.8192 9.20341 64.7978 8.63266 66.7776 9.45311C68.6861 10.2557 69.774 12.0928 69.774 14.7504C69.7919 17.3901 68.7039 19.1023 66.8133 19.8871Z" fill="white"/>
<path d="M97.1879 5.8681H93.05V23.704H97.1879V5.8681Z" fill="white"/>
<path d="M88.2521 20.1011C87.3603 20.2438 86.5933 20.2973 85.9156 20.2973C84.239 20.2973 83.3115 19.78 83.3115 16.9976V9.57788H89.0547V5.86801H83.3115V0H79.1736V5.86801H73.9477L75.9453 9.59572H79.1736V17.2295C79.1736 21.8847 81.3139 24.239 85.5232 24.239C87.0571 24.239 88.038 24.0785 89.3222 23.7574L90.107 23.5612L88.2521 20.1011Z" fill="white"/>
<path d="M104.804 14.7504C104.804 14.786 104.804 14.8217 104.804 14.8574L100.737 14.8217C100.737 14.8039 100.737 14.7682 100.737 14.7504C100.737 9.50662 105 5.24384 110.244 5.24384V9.31042C107.23 9.31042 104.804 11.7539 104.804 14.7504Z" fill="url(#paint1_linear)"/>
<defs>
<linearGradient id="paint0_linear" x1="16.1931" y1="8.11096" x2="5.61542" y2="8.11096" gradientUnits="userSpaceOnUse">
<stop offset="0.0587508" stop-color="white" stop-opacity="0"/>
<stop offset="0.4516" stop-color="white" stop-opacity="0.35"/>
<stop offset="0.9658" stop-color="white"/>
</linearGradient>
<linearGradient id="paint1_linear" x1="109.071" y1="4.52887" x2="103.343" y2="14.4756" gradientUnits="userSpaceOnUse">
<stop offset="0.0564" stop-color="white" stop-opacity="0"/>
<stop offset="0.4497" stop-color="white" stop-opacity="0.35"/>
<stop offset="0.9656" stop-color="white"/>
</linearGradient>
</defs>
</svg>
